<svg aria-hidden="true" style="position: absolute; width: 0; height: 0; overflow: hidden;" version="1.1" xmlns="http://www.w3.org/2000/svg" xmlns:xlink="http://www.w3.org/1999/xlink">
<defs>
<symbol id="icon-doctor" viewBox="0 0 32 32">
<path d="M11.733 14.933c-2.945 0-5.333-2.388-5.333-5.333v0-4.267c0-0.589 0.478-1.067 1.067-1.067h1.067c0.589 0 1.067-0.478 1.067-1.067s-0.478-1.067-1.067-1.067h-1.067c-1.767 0-3.2 1.433-3.2 3.2v4.267c0.003 2.446 1.207 4.735 3.221 6.123v0c1.927 1.699 3.075 4.111 3.179 6.677 0 4.124 3.343 7.467 7.467 7.467s7.467-3.343 7.467-7.467v-1.216c2.282-0.589 3.654-2.916 3.065-5.198s-2.916-3.654-5.198-3.065c-2.282 0.589-3.654 2.916-3.065 5.198 0.388 1.503 1.562 2.676 3.065 3.065v1.216c0 2.945-2.388 5.333-5.333 5.333s-5.333-2.388-5.333-5.333c0.109-2.57 1.265-4.983 3.2-6.677v0c2.006-1.393 3.202-3.68 3.2-6.123v-4.267c0-1.767-1.433-3.2-3.2-3.2h-1.067c-0.589 0-1.067 0.478-1.067 1.067s0.478 1.067 1.067 1.067h1.067c0.589 0 1.067 0.478 1.067 1.067v4.267c0 2.945-2.388 5.333-5.333 5.333zM24.533 19.2c-1.178 0-2.133-0.955-2.133-2.133s0.955-2.133 2.133-2.133 2.133 0.955 2.133 2.133-0.955 2.133-2.133 2.133z"></path>
</symbol>
<symbol id="icon-facebook" viewBox="0 0 32 32">
<path d="M16 2.72c-7.333 0-13.333 5.987-13.333 13.36 0 6.667 4.88 12.2 11.253 13.2v-9.333h-3.387v-3.867h3.387v-2.947c0-3.347 1.987-5.187 5.040-5.187 1.453 0 2.973 0.253 2.973 0.253v3.293h-1.68c-1.653 0-2.173 1.027-2.173 2.080v2.507h3.707l-0.6 3.867h-3.107v9.333c3.142-0.496 6.003-2.099 8.067-4.52s3.194-5.499 3.187-8.68c0-7.373-6-13.36-13.333-13.36z"></path>
</symbol>
<symbol id="icon-help" viewBox="0 0 32 32">
<path d="M29.361 6.368h-26.722c-1.455 0-2.639 1.184-2.639 2.639v10.689c0 1.455 1.184 2.639 2.639 2.639h9.413l2.838 2.838c0.296 0.297 0.691 0.46 1.11 0.46s0.814-0.163 1.11-0.46l2.838-2.838h9.413c1.455 0 2.639-1.184 2.639-2.639v-10.689c0-1.455-1.184-2.639-2.639-2.639zM30.998 19.695c0 0.902-0.734 1.637-1.637 1.637h-9.62c-0.141 0-0.272 0.059-0.364 0.157l-2.974 2.974c-0.107 0.107-0.25 0.166-0.402 0.166s-0.294-0.059-0.402-0.166l-2.972-2.972c-0.093-0.1-0.225-0.16-0.367-0.16h-9.621c-0.902 0-1.637-0.734-1.637-1.637v-10.689c0-0.902 0.734-1.637 1.637-1.637h26.722c0.902 0 1.637 0.734 1.637 1.637v10.689z"></path>
<path d="M9.587 10.643c-0.277 0-0.501 0.224-0.501 0.501v2.706h-3.273v-2.706c0-0.277-0.224-0.501-0.501-0.501s-0.501 0.224-0.501 0.501v6.413c0 0.277 0.224 0.501 0.501 0.501s0.501-0.224 0.501-0.501v-2.706h3.274v2.706c0 0.277 0.224 0.501 0.501 0.501s0.501-0.224 0.501-0.501v-6.413c-0-0.277-0.224-0.501-0.501-0.501z"></path>
<path d="M21.344 17.057h-3.207c-0.018 0-0.033-0.015-0.033-0.033v-5.879c0-0.277-0.224-0.501-0.501-0.501s-0.501 0.224-0.501 0.501v5.879c0 0.571 0.465 1.035 1.035 1.035h3.207c0.277 0 0.501-0.224 0.501-0.501s-0.224-0.501-0.501-0.501z"></path>
<path d="M15.466 17.057h-3.207c-0.018 0-0.033-0.015-0.033-0.033v-2.171h2.171c0.277 0 0.501-0.224 0.501-0.501s-0.224-0.501-0.501-0.501h-2.171v-2.171c0-0.018 0.015-0.033 0.033-0.033h3.207c0.277 0 0.501-0.224 0.501-0.501s-0.224-0.501-0.501-0.501h-3.207c-0.571 0-1.036 0.464-1.036 1.036v5.344c0 0.571 0.464 1.035 1.036 1.035h3.207c0.277 0 0.501-0.224 0.501-0.501s-0.224-0.501-0.501-0.501z"></path>
<path d="M25.086 10.643h-1.603c-0.571 0-1.035 0.464-1.035 1.036v5.879c0 0.277 0.224 0.501 0.501 0.501s0.501-0.224 0.501-0.501v-1.637h1.637c1.455 0 2.639-1.184 2.639-2.639s-1.184-2.639-2.639-2.639zM25.086 14.919h-1.637v-3.24c0-0.018 0.015-0.033 0.033-0.033h1.603c0.902 0 1.637 0.734 1.637 1.637s-0.734 1.637-1.637 1.637z"></path>
</symbol>
<symbol id="icon-instagram" viewBox="0 0 32 32">
<path d="M9.391 0.196c-2.605 0.118-4.862 0.754-6.685 2.57-1.829 1.825-2.458 4.091-2.576 6.668-0.073 1.609-0.501 13.763 0.74 16.95 0.837 2.15 2.487 3.804 4.657 4.644 1.013 0.394 2.168 0.661 3.864 0.738 14.177 0.642 19.433 0.292 21.649-5.382 0.393-1.010 0.664-2.165 0.739-3.856 0.648-14.214-0.105-17.295-2.576-19.763-1.96-1.955-4.265-3.286-19.812-2.57zM9.522 28.908c-1.552-0.070-2.394-0.329-2.956-0.546-1.414-0.549-2.476-1.607-3.022-3.013-0.946-2.422-0.632-13.925-0.548-15.786 0.083-1.823 0.452-3.489 1.739-4.775 1.592-1.588 3.649-2.366 17.654-1.734 1.828 0.083 3.498 0.451 4.787 1.734 1.592 1.588 2.382 3.661 1.739 17.612-0.070 1.548-0.33 2.389-0.548 2.949-1.441 3.692-4.756 4.205-18.845 3.559zM22.543 7.503c0 1.051 0.855 1.906 1.91 1.906s1.912-0.854 1.912-1.906c0-1.051-0.857-1.906-1.912-1.906s-1.91 0.854-1.91 1.906zM7.78 15.981c0 4.504 3.66 8.155 8.175 8.155s8.175-3.651 8.175-8.155c0-4.504-3.66-8.153-8.175-8.153s-8.175 3.649-8.175 8.153zM10.649 15.981c0-2.922 2.375-5.293 5.306-5.293s5.306 2.371 5.306 5.293c0 2.924-2.375 5.295-5.306 5.295s-5.306-2.371-5.306-5.295z"></path>
</symbol>
<symbol id="icon-linkedin" viewBox="0 0 32 32">
<path d="M16 0c-8.838 0-16 7.162-16 16s7.162 16 16 16 16-7.163 16-16-7.163-16-16-16zM11.525 22.694h-3.119v-9.981h3.119v9.981zM9.881 11.463h-0.025c-1.131 0-1.862-0.762-1.862-1.731 0-0.988 0.756-1.731 1.906-1.731s1.856 0.744 1.881 1.731c0.006 0.963-0.725 1.731-1.9 1.731zM24 22.694h-3.538v-5.163c0-1.35-0.55-2.275-1.769-2.275-0.931 0-1.45 0.625-1.688 1.225-0.087 0.212-0.075 0.512-0.075 0.819v5.394h-3.506c0 0 0.044-9.15 0-9.981h3.506v1.569c0.206-0.688 1.325-1.662 3.113-1.662 2.219 0 3.956 1.438 3.956 4.525v5.55z"></path>
</symbol>
<symbol id="icon-pregnant" viewBox="0 0 32 32">
<path d="M21.445 14.193c0.433-2.482 0.506-6.043-1.294-9.659-1.678-3.374-4.436-3.138-4.436-3.138-3.427-1.541-7.158 1.798-7.859 3.684-1.010 2.723 0.342 4.283 1.384 4.842-0.171 0.255-0.434 0.668-0.108 1.205 0.102 0.169 0.309 0.37 0.716 0.395-0.13 0.254-0.129 0.525 0.003 0.749 0.142 0.241 0.406 0.377 0.684 0.453-0.085 0.339-0.075 0.726 0.166 1.075 0.115 0.168 0.332 0.367 0.706 0.367 0.072 0 0.138-0.008 0.198-0.017 0.155 0.385 0.47 0.937 1.196 0.937 0.658 0 1.569-0.498 2.933-1.599-0.136 2.32-5.184 3.42-5.184 5.285 0 1.351 1.261 1.724 1.261 1.724s-2.092 0.795-3.223 2.864c-0.052 0.046-0.108 0.085-0.152 0.141-0.141 0.175-0.284 0.456-0.271 0.854-0.181 0.546-0.285 1.175-0.285 1.829 0 0.004 0 0.008 0 0.011v-0.001c0 3.345 2.66 4.806 5.803 4.806h5.135s0.349-1.021-0.314-4.573c-0.031-0.163-0.054-0.317-0.078-0.471l0.004-0.002-0.070-0.494c-0.004-0.037-0.009-0.074-0.012-0.11 2.812-0.76 5.816-1.898 6.11-3.348 0.404-1.992-2.091-6.309-3.011-7.811zM18.151 12.382c-0.058 0.252-0.092 0.541-0.092 0.838 0 0.114 0.005 0.227 0.015 0.339l-0.001-0.014-2.229-0.148 0.021-0.018c0.14-0.114 0.305-0.242 0.474-0.365l0.034-0.024c1.061-0.785 1.649-1.358 0.995-3.607 0.215-0.187 0.381-0.432 0.491-0.716 0.348 0.725 0.682 1.955 0.291 3.714zM15.549 12.992c-1.44 1.178-2.255 1.592-2.748 1.592-0.469 0-0.649-0.371-0.8-0.812-0.043-0.121-0.12-0.155-0.215-0.155-0.101 0-0.222 0.034-0.34 0.041-0.483-0.279-0.142-1.059 0.158-1.508-0.444 0.037-1.035 0.094-1.272-0.472 0.168-0.302 0.283-0.493 0.123-0.685-0.011-0.011-0.032-0.016-0.063-0.016-0.098 0-0.284 0.045-0.462 0.045-0.152 0-0.296-0.033-0.37-0.156-0.348-0.575 0.545-0.725 0.422-1.803-0.066-0.593-1.172-0.706-1.386-2.863-0.045-0.458 0.349-0.676 0.9-0.676 0.697 0 1.646 0.348 2.279 0.996 1.639 1.687 2.53 1.976 2.947 1.976 0.217 0 0.306-0.079 0.306-0.079l0.009-0.005c-0.135-0.208-0.245-0.448-0.316-0.704l-0.004-0.018c-0.274-1.016 0.114-1.968 0.865-2.123 0.072-0.015 0.143-0.022 0.216-0.022 0.688 0 1.393 0.658 1.641 1.578 0.248 0.917-0.045 1.775-0.657 2.049 0.884 2.738 0.038 2.781-1.232 3.82zM10.139 23.36c0.027 0 0.041 0.001 0.041 0.001s0.785-0.188 1.479 0.158c-0.479-0.534-1.194-0.318-1.194-0.506 0-0.367 0.579-0.506 0.579-0.506 1.027 0 1.511 0.489 1.967 0.735v2.94s-2.136 0.693-3.482 0.099c-0.382-0.361-0.665-0.927-0.84-1.73-0.248-1.139 1.187-1.19 1.45-1.19zM18.392 30.5h-4.708c-1.244 0-5.303-0.311-5.303-4.306 0-0.264 0.021-0.513 0.052-0.754 0.557 1.476 1.544 1.814 2.328 1.814 1.091 0 1.812-0.127 2.282-0.27l-0.007 0.213c2.546-0.209 4.173-0.736 4.918-1.032 0.019 0.117 0.035 0.232 0.058 0.355 0.424 2.261 0.421 3.455 0.38 3.98zM23.966 21.904c-0.345 1.698-6.2 3.268-10.167 3.941l-0.117-2.225c1.696-0.419 6.454-1.677 7.267-2.77l0.174-0.233-0.116-0.267c-0.454-1.037-3.124-4.596-3.124-4.596l1.208 4.154-0.026 0.047c-0.302 0.533-0.617 1.094-0.86 1.773-0.854 0.265-2.495 0.753-4.25 1.149h-0.476c-0.122 0-0.286-0.105-0.493-0.239-0.415-0.267-0.983-0.633-1.94-0.633-0.623 0-0.954 0.248-1.122 0.456-0.097 0.119-0.171 0.262-0.211 0.418l-0.002 0.008c-0.085 0.011-0.177 0.029-0.27 0.050 1.030-1.377 2.453-1.94 2.546-1.976l1.351-0.511-1.381-0.435c-0.093-0.029-0.907-0.313-0.907-1.247 0-0.613 1.085-1.287 2.134-1.939 1.261-0.784 2.672-1.661 2.99-2.91l1.971 0.13c0.428 2.083 2.343 3.501 2.343 3.501s0.461-1.007 0.816-2.63c1.194 2.010 2.974 5.446 2.663 6.982zM18.819 21.532c0.34-0.802 0.773-1.457 1.128-2.174 0.254 0.471 0.471 0.895 0.602 1.194-0.229 0.306-0.891 0.646-1.73 0.98z"></path>
<path d="M15.826 6.422c0.121-0.122 0.267-0.233 0.411-0.367-0.21 0.002-0.406 0.058-0.577 0.154l0.006-0.003c-0.186 0.104-0.331 0.261-0.417 0.452l-0.002 0.006c-0.052 0.122-0.082 0.265-0.082 0.414 0 0.087 0.010 0.173 0.030 0.254l-0.002-0.007c0.038 0.178 0.114 0.345 0.216 0.489-0.083 0.013-0.159 0.050-0.195 0.123 0.123 0.019 0.194 0.073 0.264 0.124 0.069 0.054 0.132 0.11 0.185 0.172 0.052 0.057 0.098 0.122 0.136 0.191l0.003 0.005c0.039 0.073 0.066 0.165 0.084 0.293 0.104-0.056 0.167-0.184 0.162-0.325-0.002-0.141-0.072-0.278-0.162-0.382-0.087-0.099-0.203-0.17-0.335-0.199l-0.004-0.001c-0.023-0.004-0.051-0.006-0.078-0.007h-0.001c-0.034-0.379-0.051-0.715 0.073-0.985 0.060-0.149 0.162-0.277 0.284-0.402z"></path>
<path d="M10.874 8.245c-0.115 0.162-0.213 0.304-0.339 0.425 0-0.003 0-0.007 0-0.010 0-0.115-0.026-0.224-0.073-0.321l0.002 0.004c-0.074-0.175-0.178-0.316-0.25-0.452-0.080-0.133-0.131-0.253-0.148-0.389s0.012-0.291 0.048-0.465c-0.155 0.090-0.265 0.241-0.298 0.42l-0.001 0.004c-0.042 0.2 0.032 0.421 0.127 0.584 0.098 0.165 0.21 0.296 0.313 0.42 0.072 0.091 0.129 0.184 0.171 0.293-0.102 0.081-0.22 0.147-0.348 0.193l-0.009 0.003c0.203 0.133 0.472 0.149 0.691 0.053 0.223-0.090 0.386-0.261 0.511-0.438 0.124-0.178 0.212-0.367 0.286-0.554 0.084-0.183 0.128-0.364 0.275-0.525-0.243-0.038-0.45 0.136-0.589 0.282-0.148 0.152-0.261 0.321-0.37 0.475z"></path>
</symbol>
<symbol id="icon-telegram" viewBox="0 0 32 32">
<path d="M30.816 5.993c0.424-2.066-1.606-3.784-3.573-3.023l-24.119 9.319c-2.197 0.849-2.295 3.922-0.156 4.909l5.252 2.424 2.499 8.745c0.13 0.454 0.49 0.806 0.948 0.925s0.943-0.014 1.277-0.348l3.849-3.849 5.392 4.044c1.565 1.174 3.819 0.319 4.212-1.598l4.42-21.547zM4.084 14.775l24.119-9.319-4.42 21.547-6.317-4.738c-0.531-0.398-1.274-0.345-1.743 0.124l-1.649 1.649 0.495-2.724 9.705-9.705c0.472-0.472 0.522-1.221 0.117-1.752s-1.141-0.68-1.721-0.348l-13.404 7.659-5.184-2.393zM10.903 19.305l0.809 2.83 0.31-1.707c0.049-0.267 0.177-0.513 0.369-0.704l2.96-2.96-4.448 2.541z"></path>
</symbol>
<symbol id="icon-website" viewBox="0 0 32 32">
<path d="M16 0c-8.837 0-16 7.163-16 16s7.163 16 16 16 16-7.163 16-16-7.163-16-16-16zM26.142 9.125h-2.917c-0.335-1.407-0.77-2.701-1.287-3.845 0.987 0.548 1.903 1.237 2.723 2.058 0.554 0.554 1.048 1.153 1.48 1.787zM28.25 16c0 1.069-0.137 2.117-0.401 3.125h-4.002c0.1-1.011 0.153-2.055 0.153-3.125s-0.053-2.114-0.153-3.125h4.002c0.264 1.008 0.401 2.056 0.401 3.125zM16 28.25c-0.325 0-1.316-0.639-2.303-2.613-0.409-0.818-0.76-1.75-1.047-2.762h6.699c-0.287 1.012-0.638 1.944-1.047 2.762-0.987 1.974-1.978 2.613-2.303 2.613zM11.926 19.125c-0.115-1.015-0.176-2.064-0.176-3.125s0.060-2.11 0.176-3.125h8.148c0.115 1.015 0.176 2.064 0.176 3.125s-0.060 2.11-0.176 3.125h-8.148zM3.75 16c0-1.069 0.137-2.117 0.401-3.125h4.002c-0.1 1.011-0.153 2.055-0.153 3.125s0.053 2.114 0.153 3.125h-4.002c-0.264-1.008-0.401-2.056-0.401-3.125zM16 3.75c0.325 0 1.316 0.639 2.303 2.613 0.409 0.818 0.76 1.75 1.047 2.762h-6.7c0.287-1.012 0.638-1.944 1.047-2.762 0.987-1.974 1.978-2.613 2.303-2.613zM10.061 5.28c-0.517 1.144-0.951 2.438-1.287 3.845h-2.917c0.432-0.634 0.926-1.233 1.48-1.787 0.82-0.82 1.737-1.509 2.723-2.058zM5.858 22.875h2.917c0.335 1.407 0.77 2.701 1.287 3.845-0.987-0.549-1.903-1.237-2.723-2.058-0.554-0.554-1.048-1.153-1.48-1.787zM21.939 26.72c0.517-1.144 0.951-2.438 1.287-3.845h2.917c-0.432 0.634-0.926 1.233-1.48 1.787-0.82 0.82-1.737 1.509-2.723 2.058z"></path>
</symbol>
<symbol id="icon-youtube" viewBox="0 0 32 32">
<path d="M30.722 24.579c-0.585 1.315-2.094 2.506-3.511 2.769-0.145 0.027-3.608 0.652-11.201 0.652h-0.020c-7.592 0-11.058-0.625-11.202-0.651-1.417-0.264-2.927-1.455-3.513-2.771-0.052-0.117-1.274-2.931-1.274-8.578s1.222-8.462 1.274-8.579c0.586-1.316 2.096-2.506 3.513-2.769 0.144-0.027 3.61-0.652 11.202-0.652 7.613 0 11.076 0.625 11.22 0.651 1.418 0.264 2.927 1.454 3.513 2.769 0.052 0.118 1.277 2.933 1.277 8.58s-1.225 8.461-1.278 8.579zM28.893 8.23c-0.312-0.701-1.29-1.471-2.048-1.612-0.032-0.006-3.459-0.618-10.835-0.618-7.395 0-10.825 0.612-10.858 0.618-0.758 0.141-1.735 0.911-2.048 1.616-0.010 0.021-1.102 2.595-1.102 7.766s1.092 7.744 1.104 7.77c0.311 0.701 1.288 1.471 2.047 1.612 0.032 0.006 3.462 0.618 10.837 0.618h0.020c7.376 0 10.803-0.612 10.836-0.618 0.758-0.141 1.735-0.911 2.048-1.616 0.010-0.022 1.104-2.596 1.104-7.766s-1.094-7.745-1.105-7.77zM13.541 21.846c-0.162 0.103-0.348 0.154-0.533 0.154-0.166 0-0.332-0.041-0.483-0.125-0.319-0.176-0.517-0.511-0.517-0.875v-10c0-0.363 0.196-0.697 0.513-0.873s0.706-0.169 1.013 0.022l8.019 4.956c0.293 0.181 0.473 0.501 0.474 0.846s-0.175 0.667-0.467 0.85l-8.019 5.045zM14.009 12.794v6.395l5.128-3.226-5.128-3.169z"></path>
</symbol>
<symbol id="icon-burger" viewBox="0 0 32 32">
<path d="M3.429 8c0-0.631 0.512-1.143 1.143-1.143h22.857c0.631 0 1.143 0.512 1.143 1.143s-0.512 1.143-1.143 1.143h-22.857c-0.631 0-1.143-0.512-1.143-1.143z"></path>
<path d="M3.429 16c0-0.631 0.512-1.143 1.143-1.143h22.857c0.631 0 1.143 0.512 1.143 1.143s-0.512 1.143-1.143 1.143h-22.857c-0.631 0-1.143-0.512-1.143-1.143z"></path>
<path d="M4.571 22.857c-0.631 0-1.143 0.512-1.143 1.143s0.512 1.143 1.143 1.143h22.857c0.631 0 1.143-0.512 1.143-1.143s-0.512-1.143-1.143-1.143h-22.857z"></path>
</symbol>
<symbol id="icon-form" viewBox="0 0 32 32">
<path d="M14.125 19.65c0.55 0 1 0.45 1 1v0.275c0 0.55-0.45 1-1 1s-1-0.45-1-1v-0.275c0-0.55 0.45-1 1-1zM9.5 11.7s0.075 0.675 0.85 0.675 0.825-0.675 0.825-0.675c-0.075-2.2 0.95-3.275 3.075-3.15 1.4 0.15 2.125 0.95 2.175 2.375-0.1 0.625-0.625 1.45-1.575 2.45-1.25 1.275-1.9 2.4-1.9 3.4v1.025s0.1 0.625 0.8 0.625 0.8-0.625 0.8-0.625v-0.725c0-0.85 0.6-1.85 1.8-3.025 1.275-1.15 1.9-2.225 1.9-3.175-0.1-2.65-1.475-4.025-4.15-4.125-3.075 0-4.6 1.625-4.6 4.95z"></path>
<path d="M17.45 27.925h-13.825c-0.9 0-1.675-0.775-1.675-1.675v-23.825c0-0.9 0.775-1.675 1.675-1.675h20.5c0.9 0 1.675 0.775 1.675 1.675v0.75h-0.025v12.45l-8.325 12.3zM3.625 2.25c-0.075 0-0.175 0.1-0.175 0.175v23.825c0 0.075 0.1 0.175 0.175 0.175h13.025l7.625-11.25v-12.825c-0.025-0.050-0.1-0.1-0.15-0.1h-20.5zM19.775 26.6l-0.125 0.175v0.225l-0.050 3.7v1.1l1.025-0.4 3.45-1.4 0.2-0.075 0.125-0.175 6.4-9.35 0.4-0.6-0.6-0.4-3.4-2.325-0.6-0.4-0.4 0.6-6.425 9.325zM26.375 18.25l3.4 2.325-0.2-1-6.4 9.35 0.325-0.275-3.45 1.4 1 0.675 0.050-3.7-0.125 0.4 6.4-9.35-1 0.175z"></path>
<path d="M23.472 29.208l-2.785-1.906 0.847-1.238 2.785 1.906z"></path>
</symbol>
<symbol id="icon-close" viewBox="0 0 20 20">
<path d="M10 8.586l-7.071-7.071-1.414 1.414 7.071 7.071-7.071 7.071 1.414 1.414 7.071-7.071 7.071 7.071 1.414-1.414-7.071-7.071 7.071-7.071-1.414-1.414-7.071 7.071z"></path>
</symbol>
</defs>
</svg>
